<?xml version="1.0" encoding="UTF-8" standalone="no"?>
<!DOCTYPE svg PUBLIC "-//W3C//DTD SVG 1.1//EN"
 "http://www.w3.org/Graphics/SVG/1.1/DTD/svg11.dtd">
<!-- Generated by graphviz version 5.0.0 (20220707.1540)
 -->
<!-- Title: dependencies Pages: 1 -->
<svg width="1283pt" height="247pt"
 viewBox="0.00 0.00 1283.00 246.80" xmlns="http://www.w3.org/2000/svg" xmlns:xlink="http://www.w3.org/1999/xlink">
<g id="graph0" class="graph" transform="scale(1 1) rotate(0) translate(4 242.8)">
<title>dependencies</title>
<polygon fill="white" stroke="transparent" points="-4,4 -4,-242.8 1279,-242.8 1279,4 -4,4"/>
<text text-anchor="middle" x="637.5" y="-8.2" font-family="sans-serif" font-size="14.00">dependencies</text>
<g id="clust1" class="cluster">
<title>cluster_AppModule</title>
<polygon fill="none" stroke="black" stroke-dasharray="1,5" points="8,-32.8 8,-230.8 1267,-230.8 1267,-32.8 8,-32.8"/>
</g>
<g id="clust2" class="cluster">
<title>cluster_AppModule_declarations</title>
<polygon fill="none" stroke="black" points="410,-40.8 410,-92.8 1259,-92.8 1259,-40.8 410,-40.8"/>
</g>
<g id="clust9" class="cluster">
<title>cluster_AppModule_imports</title>
<polygon fill="none" stroke="black" points="258,-40.8 258,-92.8 402,-92.8 402,-40.8 258,-40.8"/>
</g>
<g id="clust11" class="cluster">
<title>cluster_AppModule_bootstrap</title>
<polygon fill="none" stroke="black" points="655,-170.8 655,-222.8 779,-222.8 779,-170.8 655,-170.8"/>
</g>
<g id="clust12" class="cluster">
<title>cluster_AppModule_providers</title>
<polygon fill="none" stroke="black" points="16,-40.8 16,-92.8 250,-92.8 250,-40.8 16,-40.8"/>
</g>
<!-- AppComponent -->
<g id="node1" class="node">
<title>AppComponent</title>
<polygon fill="#ffffb3" stroke="black" points="1250.94,-84.8 1145.06,-84.8 1145.06,-48.8 1250.94,-48.8 1250.94,-84.8"/>
<text text-anchor="middle" x="1198" y="-62.6" font-family="Times,serif" font-size="14.00">AppComponent</text>
</g>
<!-- AppModule -->
<g id="node7" class="node">
<title>AppModule</title>
<polygon fill="#8dd3c7" stroke="black" points="758.66,-149.8 755.66,-153.8 734.66,-153.8 731.66,-149.8 675.34,-149.8 675.34,-113.8 758.66,-113.8 758.66,-149.8"/>
<text text-anchor="middle" x="717" y="-127.6" font-family="Times,serif" font-size="14.00">AppModule</text>
</g>
<!-- AppComponent&#45;&gt;AppModule -->
<g id="edge1" class="edge">
<title>AppComponent&#45;&gt;AppModule</title>
<path fill="none" stroke="black" d="M1198,-85.09C1198,-107.01 1198,-140.8 1198,-140.8 1198,-140.8 768.84,-140.8 768.84,-140.8"/>
<polygon fill="black" stroke="black" points="768.84,-137.3 758.84,-140.8 768.84,-144.3 768.84,-137.3"/>
</g>
<!-- LoginComponent -->
<g id="node2" class="node">
<title>LoginComponent</title>
<polygon fill="#ffffb3" stroke="black" points="1127.27,-84.8 1012.73,-84.8 1012.73,-48.8 1127.27,-48.8 1127.27,-84.8"/>
<text text-anchor="middle" x="1070" y="-62.6" font-family="Times,serif" font-size="14.00">LoginComponent</text>
</g>
<!-- LoginComponent&#45;&gt;AppModule -->
<g id="edge2" class="edge">
<title>LoginComponent&#45;&gt;AppModule</title>
<path fill="none" stroke="black" d="M1070,-84.91C1070,-104.14 1070,-131.8 1070,-131.8 1070,-131.8 768.88,-131.8 768.88,-131.8"/>
<polygon fill="black" stroke="black" points="768.88,-128.3 758.88,-131.8 768.88,-135.3 768.88,-128.3"/>
</g>
<!-- NavbarComponent -->
<g id="node3" class="node">
<title>NavbarComponent</title>
<polygon fill="#ffffb3" stroke="black" points="994.03,-84.8 871.97,-84.8 871.97,-48.8 994.03,-48.8 994.03,-84.8"/>
<text text-anchor="middle" x="933" y="-62.6" font-family="Times,serif" font-size="14.00">NavbarComponent</text>
</g>
<!-- NavbarComponent&#45;&gt;AppModule -->
<g id="edge3" class="edge">
<title>NavbarComponent&#45;&gt;AppModule</title>
<path fill="none" stroke="black" d="M933,-84.83C933,-101.2 933,-122.8 933,-122.8 933,-122.8 768.9,-122.8 768.9,-122.8"/>
<polygon fill="black" stroke="black" points="768.9,-119.3 758.9,-122.8 768.9,-126.3 768.9,-119.3"/>
</g>
<!-- SingUpComponent -->
<g id="node4" class="node">
<title>SingUpComponent</title>
<polygon fill="#ffffb3" stroke="black" points="854.12,-84.8 729.88,-84.8 729.88,-48.8 854.12,-48.8 854.12,-84.8"/>
<text text-anchor="middle" x="792" y="-62.6" font-family="Times,serif" font-size="14.00">SingUpComponent</text>
</g>
<!-- SingUpComponent&#45;&gt;AppModule -->
<g id="edge4" class="edge">
<title>SingUpComponent&#45;&gt;AppModule</title>
<path fill="none" stroke="black" d="M744.39,-84.91C744.39,-84.91 744.39,-103.79 744.39,-103.79"/>
<polygon fill="black" stroke="black" points="740.89,-103.79 744.39,-113.79 747.89,-103.79 740.89,-103.79"/>
</g>
<!-- TodoInputComponent -->
<g id="node5" class="node">
<title>TodoInputComponent</title>
<polygon fill="#ffffb3" stroke="black" points="712.44,-84.8 571.56,-84.8 571.56,-48.8 712.44,-48.8 712.44,-84.8"/>
<text text-anchor="middle" x="642" y="-62.6" font-family="Times,serif" font-size="14.00">TodoInputComponent</text>
</g>
<!-- TodoInputComponent&#45;&gt;AppModule -->
<g id="edge5" class="edge">
<title>TodoInputComponent&#45;&gt;AppModule</title>
<path fill="none" stroke="black" d="M693.69,-84.91C693.69,-84.91 693.69,-103.79 693.69,-103.79"/>
<polygon fill="black" stroke="black" points="690.19,-103.79 693.69,-113.79 697.19,-103.79 690.19,-103.79"/>
</g>
<!-- TodoItemComponent -->
<g id="node6" class="node">
<title>TodoItemComponent</title>
<polygon fill="#ffffb3" stroke="black" points="554.04,-84.8 417.96,-84.8 417.96,-48.8 554.04,-48.8 554.04,-84.8"/>
<text text-anchor="middle" x="486" y="-62.6" font-family="Times,serif" font-size="14.00">TodoItemComponent</text>
</g>
<!-- TodoItemComponent&#45;&gt;AppModule -->
<g id="edge6" class="edge">
<title>TodoItemComponent&#45;&gt;AppModule</title>
<path fill="none" stroke="black" d="M486,-84.83C486,-101.2 486,-122.8 486,-122.8 486,-122.8 665.17,-122.8 665.17,-122.8"/>
<polygon fill="black" stroke="black" points="665.17,-126.3 675.17,-122.8 665.17,-119.3 665.17,-126.3"/>
</g>
<!-- AppComponent  -->
<g id="node9" class="node">
<title>AppComponent </title>
<polygon fill="#80b1d3" stroke="black" points="771.44,-214.8 662.56,-214.8 662.56,-178.8 771.44,-178.8 771.44,-214.8"/>
<text text-anchor="middle" x="717" y="-192.6" font-family="Times,serif" font-size="14.00">AppComponent </text>
</g>
<!-- AppModule&#45;&gt;AppComponent  -->
<g id="edge8" class="edge">
<title>AppModule&#45;&gt;AppComponent </title>
<path fill="none" stroke="black" stroke-dasharray="1,5" d="M717,-149.91C717,-149.91 717,-168.79 717,-168.79"/>
<polygon fill="black" stroke="black" points="713.5,-168.79 717,-178.79 720.5,-168.79 713.5,-168.79"/>
</g>
<!-- AppRoutingModule -->
<g id="node8" class="node">
<title>AppRoutingModule</title>
<polygon fill="#8dd3c7" stroke="black" points="394.28,-84.8 391.28,-88.8 370.28,-88.8 367.28,-84.8 265.72,-84.8 265.72,-48.8 394.28,-48.8 394.28,-84.8"/>
<text text-anchor="middle" x="330" y="-62.6" font-family="Times,serif" font-size="14.00">AppRoutingModule</text>
</g>
<!-- AppRoutingModule&#45;&gt;AppModule -->
<g id="edge7" class="edge">
<title>AppRoutingModule&#45;&gt;AppModule</title>
<path fill="none" stroke="black" d="M330,-84.91C330,-104.14 330,-131.8 330,-131.8 330,-131.8 665.22,-131.8 665.22,-131.8"/>
<polygon fill="black" stroke="black" points="665.22,-135.3 675.22,-131.8 665.22,-128.3 665.22,-135.3"/>
</g>
<!-- MyInterceptorInterceptor -->
<g id="node10" class="node">
<title>MyInterceptorInterceptor</title>
<ellipse fill="#fdb462" stroke="black" cx="133" cy="-66.8" rx="109.33" ry="18"/>
<text text-anchor="middle" x="133" y="-62.6" font-family="Times,serif" font-size="14.00">MyInterceptorInterceptor</text>
</g>
<!-- MyInterceptorInterceptor&#45;&gt;AppModule -->
<g id="edge9" class="edge">
<title>MyInterceptorInterceptor&#45;&gt;AppModule</title>
<path fill="none" stroke="black" d="M133,-85.09C133,-107.01 133,-140.8 133,-140.8 133,-140.8 665,-140.8 665,-140.8"/>
<polygon fill="black" stroke="black" points="665,-144.3 675,-140.8 665,-137.3 665,-144.3"/>
</g>
</g>
</svg>
